<svg width="44" height="39" viewBox="0 0 44 39" fill="none" xmlns="http://www.w3.org/2000/svg">
<g id="Logo">
<g id="Amazon mini">
<g id="Group 41">
<path id="path8" d="M39.1407 33.3759C34.399 36.8378 27.5262 38.6848 21.6089 38.6848C13.3118 38.6848 5.84234 35.6451 0.19139 30.5896C-0.252586 30.192 0.145215 29.6502 0.677989 29.9598C6.77646 33.4744 14.317 35.5888 22.1061 35.5888C27.3593 35.5888 33.1381 34.5123 38.4516 32.2783C39.2543 31.9405 39.9256 32.7989 39.1407 33.3759Z" fill="#FF9900"/>
<path id="path10" d="M41.0885 31.2106C40.4849 30.4344 37.0835 30.8439 35.5567 31.0255C35.0916 31.0825 35.0206 30.6765 35.4395 30.3845C38.1486 28.4723 42.594 29.0243 43.1124 29.6652C43.6308 30.3097 42.9775 34.7786 40.4317 36.9116C40.0411 37.2392 39.6683 37.0647 39.8423 36.6303C40.4139 35.1988 41.6957 31.9905 41.0885 31.2106Z" fill="#FF9900"/>
</g>
<path id="path30" d="M25.7762 14.7873V13.8262C22.5249 13.8262 19.0901 14.5127 19.0901 18.2947C19.0901 20.2106 20.0959 21.5087 21.8228 21.5087C23.0879 21.5087 24.2202 20.7411 24.9349 19.4929C25.8205 17.9577 25.7762 16.516 25.7762 14.7873ZM30.3117 25.6027C30.0144 25.8648 29.5842 25.8835 29.249 25.7088C27.7562 24.4856 27.4905 23.9177 26.6682 22.7506C24.2012 25.2345 22.4553 25.9772 19.2546 25.9772C15.4719 25.9772 12.5242 23.6743 12.5242 19.0623C12.5242 15.4613 14.5041 13.0087 17.319 11.8104C19.7606 10.7495 23.1701 10.5623 25.7762 10.269V9.69479C25.7762 8.64009 25.8585 7.39192 25.2323 6.48076C24.6819 5.66321 23.6319 5.3262 22.7083 5.3262C20.9941 5.3262 19.4633 6.19368 19.0901 7.99104C19.0142 8.39046 18.7169 8.78363 18.3121 8.80235L13.9474 8.34053C13.5805 8.2594 13.1757 7.96608 13.2769 7.41065C14.2827 2.1933 19.0585 0.620605 23.3346 0.620605C25.5232 0.620605 28.3824 1.19476 30.1093 2.82986C32.2979 4.84566 32.0892 7.53546 32.0892 10.4624V17.3773C32.0892 19.4555 32.9621 20.3666 33.7844 21.49C34.0754 21.8894 34.1387 22.3699 33.7718 22.6695C32.8546 23.4247 31.2226 24.8288 30.3243 25.6152L30.3117 25.6027Z" fill="#fff"/>
</g>
</g>
</svg>
