<svg width="107" height="101" viewBox="0 0 107 101" fill="none" xmlns="http://www.w3.org/2000/svg">
<mask id="mask0_52_510" style="mask-type:luminance" maskUnits="userSpaceOnUse" x="3" y="0" width="102" height="101">
<path d="M53.5496 101C81.4399 101 104.05 78.3904 104.05 50.5C104.05 22.6096 81.4399 0 53.5496 0C25.6592 0 3.04956 22.6096 3.04956 50.5C3.04956 78.3904 25.6592 101 53.5496 101Z" fill="white"/>
</mask>
<g mask="url(#mask0_52_510)">
<path d="M53.5498 101C81.4402 101 104.05 78.3904 104.05 50.5C104.05 22.6096 81.4402 0 53.5498 0C25.6594 0 3.0498 22.6096 3.0498 50.5C3.0498 78.3904 25.6594 101 53.5498 101Z" fill="#00A1E2"/>
<path d="M4.57471 69.7024H16.5665" stroke="#1E1E1C" stroke-width="2.58444" stroke-miterlimit="10"/>
<path d="M35.9238 69.7024H47.9156" stroke="#1E1E1C" stroke-width="2.58444" stroke-miterlimit="10"/>
<path d="M59.9851 69.7024H71.9769" stroke="#1E1E1C" stroke-width="2.58444" stroke-miterlimit="10"/>
<path d="M90.2229 69.7024H102.215" stroke="#1E1E1C" stroke-width="2.58444" stroke-miterlimit="10"/>
<path d="M46.3393 61.4321H32.3833C34.1149 63.7323 35.5105 66.2133 35.5105 68.2551C35.5105 73.6824 31.1169 78.0501 25.7154 78.0501C20.314 78.0501 15.9204 73.6565 15.9204 68.2551C15.9204 66.2133 17.316 63.7323 19.0476 61.4321H0.000244141" stroke="#1E1E1C" stroke-width="2.58444" stroke-linejoin="round"/>
<path d="M106.195 61.4321H87.7677C89.4993 63.7323 90.8949 66.2133 90.8949 68.2551C90.8949 73.6824 86.5014 78.0501 81.0999 78.0501C75.6984 78.0501 71.3048 73.6565 71.3048 68.2551C71.3048 66.2133 72.7004 63.7323 74.432 61.4321H56.0566" stroke="#1E1E1C" stroke-width="2.58444" stroke-linejoin="round"/>
<path d="M25.5605 56.9093V42.5657" stroke="white" stroke-width="2.58444" stroke-miterlimit="10" stroke-linecap="round"/>
<path d="M19.668 46.0547L25.5605 40.188L31.4272 46.0547" stroke="white" stroke-width="2.58444" stroke-miterlimit="10" stroke-linecap="round"/>
<path d="M80.6348 56.9093V42.5657" stroke="white" stroke-width="2.58444" stroke-miterlimit="10" stroke-linecap="round"/>
<path d="M74.7681 46.0547L80.6348 40.188L86.5273 46.0547" stroke="white" stroke-width="2.58444" stroke-miterlimit="10" stroke-linecap="round"/>
<path d="M5.84106 77.9727H103.766" stroke="#1E1E1C" stroke-width="2.58444" stroke-miterlimit="10"/>
<path d="M5.84106 86.2168H103.766" stroke="#1E1E1C" stroke-width="2.58444" stroke-miterlimit="10"/>
<path d="M5.84106 94.4873H103.766" stroke="#1E1E1C" stroke-width="2.58444" stroke-miterlimit="10"/>
<path d="M53.2916 78.4895C47.1665 78.4895 42.2043 73.5016 42.2043 67.4023C42.2043 65.0763 43.6516 62.13 46.4687 58.6669C48.7171 55.9015 50.397 52.3091 51.4566 48.019C52.3095 44.5558 53.4984 41.2736 55.0232 38.3015C62.027 24.5005 70.7883 19.2283 71.8479 19.2283H72.7266L73.3986 20.8565L72.7524 21.5026C67.6353 26.4647 63.5777 32.4348 60.6831 39.2319C57.6076 46.52 58.383 54.8936 62.7507 62.3626C63.8878 64.3009 64.4305 65.955 64.4305 67.4281C64.4305 73.5532 59.4426 78.5154 53.3433 78.5154L53.2916 78.4895Z" fill="#1E1E1C"/>
<path d="M71.822 20.5205C71.822 20.5205 71.822 20.5205 71.822 20.5722C66.0845 26.1546 62.1562 32.4348 59.4684 38.7149C59.4425 38.7666 59.4167 38.8442 59.3908 38.8959C56.0827 46.7526 57.2974 55.643 61.6135 63.0087C62.518 64.5594 63.1124 66.0842 63.1124 67.4023C63.1124 72.8296 58.7189 77.1973 53.3174 77.1973C47.9159 77.1973 43.5224 72.8037 43.5224 67.4023C43.5224 65.0246 45.3832 62.0783 47.5024 59.4939C50.1385 56.2633 51.7409 52.3867 52.7488 48.3291C53.4983 45.2019 54.6096 42.023 56.212 38.8959C63.0349 25.4568 71.5119 20.5463 71.8995 20.5463M71.822 17.936C69.9095 17.936 60.864 23.8803 53.8343 37.707C52.2836 40.7825 51.0431 44.1423 50.1644 47.7088C49.1564 51.8181 47.5799 55.2295 45.4348 57.8398C42.3594 61.6131 40.8862 64.7403 40.8862 67.4023C40.8862 74.2252 46.4428 79.7817 53.2657 79.7817C60.0886 79.7817 65.6452 74.2252 65.6452 67.4023C65.6452 65.6965 65.0508 63.8357 63.8102 61.6906C59.6493 54.5576 58.8998 46.6233 61.7427 39.9038L61.8202 39.7229C64.6373 33.0809 68.6173 27.2659 73.5794 22.433L74.82 21.2183L74.1997 19.5642L73.5536 17.9619H71.7962L71.822 17.936Z" fill="#00A1E2"/>
<path d="M53.2913 72.1058C50.7069 72.1058 48.5876 69.9865 48.5876 67.4021" stroke="white" stroke-width="2.58444" stroke-miterlimit="10" stroke-linecap="round"/>
</g>
</svg>
