<svg width="101" height="101" viewBox="0 0 101 101" fill="none" xmlns="http://www.w3.org/2000/svg">
<g clip-path="url(#clip0_52_536)">
<path d="M50.4871 100.974C78.3703 100.974 100.974 78.3703 100.974 50.4871C100.974 22.6038 78.3703 0 50.4871 0C22.6038 0 0 22.6038 0 50.4871C0 78.3703 22.6038 100.974 50.4871 100.974Z" fill="#00A1E2"/>
<path d="M58.01 59.5867C58.4495 60.2071 58.6821 60.6207 58.9665 61.1119C59.2509 61.6289 59.5094 62.1201 59.742 62.5854H99.5009C99.7336 61.6031 99.9662 60.5949 100.173 59.5867H58.0359H58.01Z" fill="#101820"/>
<path d="M40.0176 59.5867H0.853271C1.03423 60.5949 1.26689 61.6031 1.5254 62.5854H38.3114C38.7509 61.6289 39.3196 60.6207 40.0434 59.5867H40.0176Z" fill="#101820"/>
<path d="M26.0059 94.6408H74.9678C76.5964 93.736 78.1733 92.7278 79.6985 91.6421H21.2751C22.8004 92.7278 24.3514 93.736 26.0059 94.6408Z" fill="#101820"/>
<path d="M18.794 67.6262H3.0249C3.33511 68.6344 3.80043 69.6426 4.16235 70.5991H19.2852C19.0267 69.6426 18.8457 68.6603 18.794 67.6262Z" fill="#101820"/>
<path d="M41.1033 75.6143H6.72144C7.31601 76.6224 7.88473 77.6565 8.55686 78.613H46.0409C44.1796 77.9926 42.4734 76.9844 41.1292 75.6143H41.1033Z" fill="#101820"/>
<path d="M15.2521 86.6269H85.722C86.7044 85.6704 87.635 84.6622 88.5398 83.6282H12.4343C13.3391 84.6622 14.2698 85.6704 15.2521 86.6269Z" fill="#101820"/>
<path d="M77.2173 70.5732H96.8382C97.2001 69.6167 97.6913 68.6085 98.0015 67.6003H77.7085C77.6567 68.6344 77.4758 69.6167 77.2173 70.5732Z" fill="#101820"/>
<path d="M52.5552 78.613H92.4175C93.0638 77.6306 93.6583 76.6224 94.2529 75.6143H57.4669C56.1226 76.9844 54.4165 77.9926 52.5552 78.613Z" fill="#101820"/>
<path d="M49.2982 79.2592C56.0084 79.2592 61.4482 73.8195 61.4482 67.1092C61.4482 60.399 56.0084 54.9592 49.2982 54.9592C42.5879 54.9592 37.1482 60.399 37.1482 67.1092C37.1482 73.8195 42.5879 79.2592 49.2982 79.2592Z" fill="white"/>
<path d="M67.0317 21.4564C67.6004 20.8877 58.8369 25.4374 51.8312 39.216C50.2802 42.2665 49.2203 45.3427 48.4706 48.3673C47.5141 52.2967 45.9372 56.0709 43.4038 59.1989C41.3616 61.7064 39.552 64.5759 39.552 66.8767C39.552 72.1244 43.8174 76.3898 49.0652 76.3898C54.3129 76.3898 58.5784 72.1244 58.5784 66.8767C58.5784 65.5841 58.0096 64.1106 57.1307 62.6112C52.9687 55.4763 51.7795 46.8679 54.9851 39.2419C54.9851 39.1902 55.0368 39.1126 55.0626 39.0609C57.6477 32.9859 61.4737 26.8851 67.0317 21.4822V21.4564Z" fill="#101820"/>
<path d="M49.0656 72.8483C45.7825 72.8483 43.094 70.1856 43.094 66.8767C43.094 66.1011 43.7144 65.4807 44.4899 65.4807C45.2655 65.4807 45.8859 66.1011 45.8859 66.8767C45.8859 68.6087 47.3077 70.0305 49.0397 70.0305C49.8153 70.0305 50.4357 70.6509 50.4357 71.4265C50.4357 72.202 49.8153 72.8224 49.0397 72.8224L49.0656 72.8483Z" fill="white"/>
<path d="M83.4216 67.6006H70.8322L73.9602 64.4726C74.5547 63.878 74.5547 62.9474 73.9602 62.3528C73.3656 61.7582 72.4091 61.7841 71.8404 62.3528L65.0933 69.1258L71.8662 75.8729C72.3574 76.3382 73.0812 76.4416 73.65 76.1314C73.7792 76.0538 73.8826 75.9763 73.986 75.8729C74.5806 75.2783 74.5806 74.3477 73.986 73.7531L70.858 70.6251H83.4475C83.706 70.6251 83.9387 70.5476 84.1455 70.4442C84.6108 70.1857 84.9469 69.6945 84.921 69.1258C84.921 68.2985 84.2489 67.6264 83.4216 67.6264V67.6006Z" fill="white"/>
<path d="M27.5574 62.3527C26.9629 61.7581 26.0322 61.7581 25.4376 62.3527C24.8431 62.9472 24.8431 63.8779 25.4376 64.4725L28.5656 67.6004H15.9762C15.1489 67.6004 14.4768 68.2984 14.4768 69.1256C14.4768 69.9529 15.1489 70.625 15.9762 70.625H28.5656L25.4376 73.753C24.8431 74.3476 24.8431 75.2782 25.4376 75.8728C25.9288 76.3381 26.6526 76.4415 27.2214 76.1313C27.3506 76.0537 27.454 75.9762 27.5574 75.8728L34.3046 69.0998L27.5316 62.3527H27.5574Z" fill="white"/>
</g>
<defs>
<clipPath id="clip0_52_536">
<rect width="101" height="101" fill="white"/>
</clipPath>
</defs>
</svg>
