<svg width="103" height="101" viewBox="0 0 103 101" fill="none" xmlns="http://www.w3.org/2000/svg">
<g clip-path="url(#clip0_52_487)">
<mask id="mask0_52_487" style="mask-type:luminance" maskUnits="userSpaceOnUse" x="0" y="0" width="102" height="101">
<path d="M50.991 101C78.8813 101 101.491 78.3904 101.491 50.5C101.491 22.6096 78.8813 0 50.991 0C23.1006 0 0.490967 22.6096 0.490967 50.5C0.490967 78.3904 23.1006 101 50.991 101Z" fill="white"/>
</mask>
<g mask="url(#mask0_52_487)">
<path d="M50.9907 101C78.8811 101 101.491 78.3904 101.491 50.5C101.491 22.6096 78.8811 0 50.9907 0C23.1003 0 0.490723 22.6096 0.490723 50.5C0.490723 78.3904 23.1003 101 50.9907 101Z" fill="#00A1E2"/>
<path d="M2.04175 69.7024H99.9404" stroke="#1E1E1C" stroke-width="2.58444" stroke-miterlimit="10"/>
<path d="M0 61.4321H101.982" stroke="#1E1E1C" stroke-width="2.58444" stroke-miterlimit="10"/>
<path d="M2.04175 77.9727H99.9404" stroke="#1E1E1C" stroke-width="2.58444" stroke-miterlimit="10"/>
<path d="M2.04175 86.217H99.9404" stroke="#1E1E1C" stroke-width="2.58444" stroke-miterlimit="10"/>
<path d="M2.04175 94.4873H99.9404" stroke="#1E1E1C" stroke-width="2.58444" stroke-miterlimit="10"/>
<path d="M50.681 78.4895C44.5559 78.4895 39.5938 73.5016 39.5938 67.4023C39.5938 65.0763 41.041 62.13 43.8581 58.6669C46.1065 55.9015 47.7864 52.3091 48.8461 48.019C49.6989 44.5558 50.8878 41.2736 52.4126 38.3015C59.4164 24.5005 68.1777 19.2283 69.2373 19.2283H70.116L70.788 20.8565L70.1419 21.5026C65.0247 26.4647 60.9671 32.4348 58.0725 39.2319C54.997 46.52 55.7724 54.8936 60.1401 62.3626C61.2514 64.2751 61.82 65.955 61.82 67.4281C61.82 73.5532 56.832 78.5154 50.7327 78.5154L50.681 78.4895Z" fill="#1E1E1C"/>
<path d="M69.2114 20.5205C69.2114 20.5205 69.2114 20.5205 69.2114 20.5722C63.4739 26.1546 59.5456 32.4348 56.8578 38.7149C56.8319 38.7666 56.8061 38.8442 56.7802 38.8959C53.4722 46.7526 54.6868 55.643 59.0029 63.0087C59.9074 64.5594 60.5018 66.0842 60.5018 67.4023C60.5018 72.8296 56.1083 77.1973 50.7068 77.1973C45.3053 77.1973 40.9118 72.8037 40.9118 67.4023C40.9118 65.0246 42.7726 62.0783 44.8918 59.4939C47.5279 56.2633 49.1303 52.3867 50.1382 48.3291C50.8877 45.2019 51.999 42.023 53.6014 38.8959C60.4243 25.4568 68.9013 20.5463 69.2889 20.5463M69.2114 17.936C67.2989 17.936 58.2534 23.8803 51.2237 37.707C49.673 40.7825 48.4325 44.1423 47.5538 47.7088C46.5458 51.8181 44.9693 55.2295 42.8243 57.8398C39.7488 61.6131 38.2756 64.7403 38.2756 67.4023C38.2756 74.2252 43.8322 79.7817 50.6551 79.7817C57.478 79.7817 63.0346 74.2252 63.0346 67.4023C63.0346 65.6965 62.4402 63.8357 61.1996 61.6906C57.0387 54.5576 56.2892 46.6233 59.1321 39.9038L59.2096 39.7229C62.0267 33.0809 66.0067 27.2659 70.9688 22.433L72.2094 21.2183L71.5891 19.5642L70.943 17.9619H69.1856L69.2114 17.936Z" fill="#00A1E2"/>
<path d="M50.681 72.1058C48.0965 72.1058 45.9773 69.9865 45.9773 67.4021" stroke="white" stroke-width="2.58444" stroke-miterlimit="10" stroke-linecap="round"/>
<path d="M81.358 78.4895C75.2329 78.4895 70.2708 73.5016 70.2708 67.4023C70.2708 65.0763 71.718 62.1559 74.5351 58.6669C76.7835 55.9015 78.4634 52.3091 79.5231 48.019C80.3759 44.53 81.5648 41.2736 83.0896 38.3015C90.0934 24.5005 98.8547 19.2283 99.9143 19.2283H100.793L101.465 20.8565L100.819 21.5026C95.7017 26.4647 91.6699 32.4348 88.7495 39.2319C85.674 46.52 86.4494 54.8936 90.8171 62.3626C91.9284 64.2751 92.497 65.955 92.497 67.4281C92.497 73.5532 87.509 78.5154 81.4097 78.5154L81.358 78.4895Z" fill="#1E1E1C"/>
<path d="M99.8884 20.5205C99.8884 20.5205 99.8884 20.5205 99.8884 20.5722C94.151 26.1546 90.2226 32.4348 87.5348 38.7149C87.5089 38.7666 87.4831 38.8442 87.4572 38.8959C84.1492 46.7526 85.3638 55.643 89.6799 63.0087C90.5844 64.5594 91.1788 66.0842 91.1788 67.4023C91.1788 72.8296 86.7853 77.1973 81.3838 77.1973C75.9823 77.1973 71.5888 72.8037 71.5888 67.4023C71.5888 65.0246 73.4496 62.0783 75.5688 59.4939C78.2049 56.2633 79.8073 52.3867 80.8152 48.3291C81.5647 45.2019 82.676 42.023 84.2784 38.8959C91.1013 25.4568 99.5783 20.5463 99.9659 20.5463M99.8884 17.936C97.9759 17.936 88.9304 23.8803 81.9007 37.707C80.35 40.7825 79.1095 44.1423 78.2308 47.7088C77.2229 51.8181 75.6463 55.2295 73.5013 57.8398C70.4258 61.6131 68.9526 64.7403 68.9526 67.4023C68.9526 74.2252 74.5092 79.7817 81.3321 79.7817C88.155 79.7817 93.7116 74.2252 93.7116 67.4023C93.7116 65.6965 93.1172 63.8357 91.8766 61.6906C87.7157 54.5576 86.9662 46.6233 89.8091 39.9038L89.8866 39.7229C92.7037 33.0809 96.6837 27.2659 101.646 22.433L102.886 21.2183L102.266 19.5642L101.62 17.9619H99.8626L99.8884 17.936Z" fill="#00A1E2"/>
<path d="M81.358 72.1058C78.7735 72.1058 76.6543 69.9865 76.6543 67.4021" stroke="white" stroke-width="2.58444" stroke-miterlimit="10" stroke-linecap="round"/>
<path d="M19.9771 78.4895C13.852 78.4895 8.88989 73.5016 8.88989 67.4023C8.88989 65.0763 10.3372 62.13 13.1542 58.6669C15.4285 55.9015 17.0826 52.3091 18.1422 48.019C18.9951 44.5558 20.1839 41.2736 21.7087 38.3015C28.7126 24.5005 37.4738 19.2283 38.5334 19.2283H39.4121L40.0841 20.8565L39.438 21.5026C34.3208 26.4647 30.2632 32.4348 27.3687 39.2319C24.2932 46.52 25.0685 54.8936 29.4362 62.3626C30.5734 64.3009 31.1161 65.955 31.1161 67.4281C31.1161 73.5532 26.1281 78.5154 20.0288 78.5154L19.9771 78.4895Z" fill="#1E1E1C"/>
<path d="M38.5078 20.5205C38.5078 20.5205 38.5078 20.5205 38.5078 20.5722C32.7703 26.1546 28.842 32.4348 26.1542 38.7149C26.1283 38.7666 26.1025 38.8442 26.0766 38.8959C22.7685 46.7526 23.9832 55.643 28.2992 63.0087C29.2038 64.5594 29.7982 66.0842 29.7982 67.4023C29.7982 72.8296 25.4047 77.1973 20.0032 77.1973C14.6017 77.1973 10.2082 72.8037 10.2082 67.4023C10.2082 65.0246 12.069 62.0783 14.1882 59.4939C16.8243 56.2633 18.4267 52.3867 19.4346 48.3291C20.1841 45.2019 21.2954 42.023 22.8978 38.8959C29.7207 25.4568 38.1977 20.5463 38.5853 20.5463M38.5078 17.936C36.5953 17.936 27.5498 23.8803 20.5201 37.707C18.9694 40.7825 17.7289 44.1423 16.8502 47.7088C15.8422 51.8181 14.2657 55.2295 12.1206 57.8398C9.04515 61.6131 7.57202 64.7403 7.57202 67.4023C7.57202 74.2252 13.1286 79.7817 19.9515 79.7817C26.7744 79.7817 32.331 74.2252 32.331 67.4023C32.331 65.6965 31.7366 63.8357 30.496 61.6906C26.3351 54.5576 25.5856 46.6233 28.4285 39.9038L28.506 39.7229C31.323 33.0809 35.3031 27.2659 40.2652 22.433L41.5057 21.2183L40.8855 19.5642L40.2394 17.9619H38.4819L38.5078 17.936Z" fill="#00A1E2"/>
<path d="M19.9774 72.1058C17.3929 72.1058 15.2737 69.9865 15.2737 67.4021" stroke="white" stroke-width="2.58444" stroke-miterlimit="10" stroke-linecap="round"/>
</g>
</g>
<defs>
<clipPath id="clip0_52_487">
<rect width="102.938" height="101" fill="white"/>
</clipPath>
</defs>
</svg>
