<svg width="102" height="101" viewBox="0 0 102 101" fill="none" xmlns="http://www.w3.org/2000/svg">
<mask id="mask0_52_555" style="mask-type:luminance" maskUnits="userSpaceOnUse" x="0" y="0" width="102" height="101">
<path d="M51.2266 100.752C79.0484 100.752 101.602 78.1976 101.602 50.3758C101.602 22.554 79.0484 0 51.2266 0C23.4049 0 0.85083 22.554 0.85083 50.3758C0.85083 78.1976 23.4049 100.752 51.2266 100.752Z" fill="white"/>
</mask>
<g mask="url(#mask0_52_555)">
<path d="M51.2266 100.752C79.0484 100.752 101.602 78.1976 101.602 50.3758C101.602 22.554 79.0484 0 51.2266 0C23.4049 0 0.85083 22.554 0.85083 50.3758C0.85083 78.1976 23.4049 100.752 51.2266 100.752Z" fill="#00A1E2"/>
<path d="M1.83008 69.531H99.5138" stroke="#1E1E1C" stroke-width="2.57809" stroke-miterlimit="10"/>
<path d="M-0.000244141 61.2812H101.731" stroke="#1E1E1C" stroke-width="2.57809" stroke-miterlimit="10"/>
<path d="M1.83008 77.781H99.5138" stroke="#1E1E1C" stroke-width="2.57809" stroke-miterlimit="10"/>
<path d="M1.83008 86.0049H99.5138" stroke="#1E1E1C" stroke-width="2.57809" stroke-miterlimit="10"/>
<path d="M80.4879 44.3688L67.8811 37.6143" stroke="white" stroke-width="2.57809" stroke-miterlimit="10" stroke-linecap="round"/>
<path d="M68.1646 44.4204L65.7927 36.4799L73.7332 34.0823" stroke="white" stroke-width="2.57809" stroke-miterlimit="10" stroke-linecap="round"/>
<path d="M35.3193 20.0574L47.9004 26.8377" stroke="white" stroke-width="2.57809" stroke-miterlimit="10" stroke-linecap="round"/>
<path d="M47.6173 20.0317L49.9891 27.9722L42.0486 30.3441" stroke="white" stroke-width="2.57809" stroke-miterlimit="10" stroke-linecap="round"/>
<path d="M49.757 78.2964C43.6469 78.2964 38.697 73.3207 38.697 67.2364C38.697 64.9162 40.1407 62.0029 42.9509 58.5225C45.1938 55.764 46.8696 52.1804 47.9266 47.9008C48.7773 44.4204 49.9633 41.172 51.4843 38.2072C58.4709 24.4402 67.2107 19.1809 68.2677 19.1809H69.1442L69.8145 20.8051L69.17 21.4496C64.0654 26.3995 60.0436 32.3549 57.1303 39.1353C54.0624 46.4055 54.8358 54.7585 59.1928 62.2092C60.3014 64.117 60.8686 65.7927 60.8686 67.2622C60.8686 73.3723 55.8929 78.3222 49.8086 78.3222L49.757 78.2964Z" fill="#1E1E1C"/>
<path d="M68.2418 20.4699C68.2418 20.4699 68.2418 20.4699 68.2418 20.5215C62.5184 26.0902 58.5997 32.3549 55.9185 38.6197C55.8927 38.6712 55.867 38.7486 55.8412 38.8001C52.5412 46.6375 53.7529 55.5061 58.0583 62.8537C58.9607 64.4005 59.5536 65.9216 59.5536 67.2364C59.5536 72.6504 55.1709 77.0074 49.7827 77.0074C44.3945 77.0074 40.0117 72.6246 40.0117 67.2364C40.0117 64.8646 41.8679 61.9256 43.982 59.3475C46.6116 56.1249 48.21 52.2577 49.2155 48.2101C49.9631 45.0907 51.0717 41.9196 52.6701 38.8001C59.4763 25.3941 67.9324 20.4957 68.3191 20.4957M68.2418 17.8918C66.334 17.8918 57.3107 23.8214 50.2983 37.6142C48.7514 40.6821 47.514 44.0336 46.6374 47.5914C45.632 51.6906 44.0593 55.0936 41.9195 57.6975C38.8516 61.4615 37.3821 64.581 37.3821 67.2364C37.3821 74.0426 42.925 79.5854 49.7311 79.5854C56.5373 79.5854 62.0801 74.0426 62.0801 67.2364C62.0801 65.5349 61.4872 63.6787 60.2497 61.5388C56.099 54.4233 55.3513 46.5086 58.1872 39.8056L58.2646 39.6251C61.0747 32.9994 65.0449 27.1987 69.9949 22.3777L71.2323 21.166L70.6136 19.516L69.9691 17.9176H68.216L68.2418 17.8918Z" fill="#00A1E2"/>
<path d="M49.7566 71.9284C47.1785 71.9284 45.0645 69.8144 45.0645 67.2363" stroke="white" stroke-width="2.57809" stroke-miterlimit="10" stroke-linecap="round"/>
<path d="M1.83008 94.2549H99.5138" stroke="#1E1E1C" stroke-width="2.99058" stroke-miterlimit="10"/>
</g>
</svg>
