<svg width="12" height="11" viewBox="0 0 12 11" fill="none" xmlns="http://www.w3.org/2000/svg">
<path d="M5.53446 0.607553C5.684 0.147296 6.33514 0.147297 6.48469 0.607554L7.46765 3.6328C7.53453 3.83863 7.72634 3.97799 7.94277 3.97799L11.1237 3.97799C11.6076 3.97799 11.8089 4.59726 11.4173 4.88172L8.84391 6.75142C8.66882 6.87864 8.59555 7.10412 8.66243 7.30996L9.64539 10.3352C9.79494 10.7955 9.26816 11.1782 8.87664 10.8937L6.30321 9.02403C6.12812 8.89682 5.89103 8.89682 5.71593 9.02403L3.1425 10.8937C2.75099 11.1782 2.2242 10.7955 2.37375 10.3352L3.35671 7.30996C3.42359 7.10412 3.35033 6.87864 3.17523 6.75142L0.601805 4.88172C0.210287 4.59726 0.411501 3.97799 0.895444 3.97799L4.07638 3.97799C4.2928 3.97799 4.48461 3.83863 4.55149 3.6328L5.53446 0.607553Z" fill="#FBD344"/>
</svg>
